<svg width="16" height="16" viewBox="0 0 16 16" fill="none" xmlns="http://www.w3.org/2000/svg">
<path d="M6.67611 1.302C3.73057 1.302 1.34277 3.69001 1.34277 6.63535C1.34277 9.58069 3.73057 11.9687 6.67611 11.9687C7.90057 11.9687 9.06117 11.548 9.96137 10.8547L12.8636 13.7814C13.124 14.0414 13.5616 14.0414 13.822 13.7814C14.0823 13.5207 14.0823 13.0834 13.822 12.8227L10.8996 9.91601C11.5935 9.01601 12.0094 7.86002 12.0094 6.63535C12.0094 3.69001 9.62164 1.302 6.67611 1.302ZM6.67611 2.63534C8.88524 2.63534 10.6761 4.42601 10.6761 6.63535C10.6761 8.84469 8.88524 10.6354 6.67611 10.6354C4.46697 10.6354 2.67611 8.84469 2.67611 6.63535C2.67611 4.42601 4.46697 2.63534 6.67611 2.63534Z" fill="#191B1F"/>
</svg>
